<?xml version="1.0" standalone="no"?>
<!DOCTYPE svg PUBLIC "-//W3C//DTD SVG 20010904//EN"
 "http://www.w3.org/TR/2001/REC-SVG-20010904/DTD/svg10.dtd">
<svg version="1.0" xmlns="http://www.w3.org/2000/svg"
 width="700.000000pt" height="700.000000pt" viewBox="0 0 700.000000 700.000000"
 preserveAspectRatio="xMidYMid meet">
<metadata>
Created by potrace 1.14, written by Peter Selinger 2001-2017
</metadata>
<g transform="translate(0.000000,700.000000) scale(0.100000,-0.100000)"
fill="#000000" stroke="none">
<path d="M3317 6663 c-13 -21 -86 -146 -162 -278 -76 -132 -169 -294 -206
-359 -38 -66 -69 -122 -69 -125 0 -2 -6 -12 -14 -20 -7 -9 -27 -41 -44 -72
-16 -32 -37 -68 -45 -80 -9 -13 -28 -47 -44 -74 -28 -50 -141 -247 -177 -308
-36 -62 -250 -434 -956 -1657 -103 -179 -196 -339 -206 -357 -11 -17 -37 -62
-58 -100 -22 -37 -103 -178 -181 -313 -78 -135 -153 -265 -167 -290 -35 -61
-235 -408 -258 -445 -17 -29 -17 -33 6 -135 13 -58 26 -116 29 -130 3 -14 37
-167 76 -340 39 -173 72 -324 75 -335 31 -155 179 -812 185 -818 6 -8 63 8
394 114 141 45 402 127 650 206 61 19 115 35 120 37 6 1 71 21 145 45 74 23
193 61 263 83 82 26 131 46 135 57 3 9 15 32 27 51 12 19 40 67 62 105 22 39
79 137 127 218 47 81 86 150 86 153 0 3 8 18 19 32 10 15 29 47 43 72 14 25
40 71 59 103 19 32 46 80 60 105 15 26 84 146 154 267 70 121 195 337 278 480
184 320 209 362 652 1130 197 341 366 634 375 650 10 17 68 118 130 225 62
107 121 209 130 225 9 17 60 104 112 195 53 91 141 244 197 340 55 96 97 177
93 181 -6 6 -186 111 -712 414 -69 40 -287 166 -485 280 -198 114 -434 251
-525 303 -153 87 -236 136 -317 184 l-32 19 -24 -38z m282 -618 c51 -30 95
-55 97 -55 3 0 21 -11 42 -23 20 -13 145 -86 277 -162 132 -76 254 -146 270
-155 17 -10 134 -78 261 -151 127 -74 241 -141 253 -149 l23 -15 -36 -63 c-20
-34 -52 -90 -72 -124 -20 -35 -48 -83 -62 -107 -14 -25 -38 -68 -55 -95 -16
-28 -39 -67 -50 -86 -65 -115 -109 -190 -112 -190 -2 0 -97 54 -210 120 -114
66 -208 120 -211 120 -2 0 -34 19 -71 42 -38 22 -86 51 -108 64 -22 12 -182
104 -355 204 -173 101 -328 189 -343 197 -26 14 -27 17 -14 36 8 12 43 73 78
135 35 62 75 133 89 156 14 24 66 114 115 200 50 85 92 156 96 156 3 0 47 -25
98 -55z m-542 -1086 c87 -51 178 -103 203 -117 51 -29 447 -257 470 -271 8 -5
120 -69 248 -143 220 -126 232 -134 227 -158 -4 -14 -11 -26 -16 -28 -5 -2 -9
-7 -9 -11 0 -5 -72 -134 -161 -287 -89 -154 -246 -425 -349 -604 -103 -179
-200 -347 -215 -375 -15 -27 -36 -62 -46 -77 -11 -14 -19 -29 -19 -32 0 -3
-30 -56 -66 -118 -36 -62 -84 -144 -107 -183 -22 -38 -53 -91 -69 -118 -15
-26 -28 -50 -28 -53 0 -3 -8 -18 -19 -32 -10 -15 -30 -47 -44 -72 -72 -129
-360 -626 -366 -633 -5 -5 -53 17 -107 49 -54 31 -211 122 -349 202 -137 80
-275 158 -305 175 -30 16 -67 38 -82 49 -14 10 -28 18 -31 18 -2 0 -77 43
-166 95 -90 52 -164 95 -166 95 -2 0 -31 16 -64 36 l-60 36 30 49 c16 28 29
54 29 59 0 6 5 10 10 10 6 0 10 4 10 10 0 5 81 150 181 322 100 172 216 374
259 448 139 241 377 654 396 687 11 18 69 119 130 225 62 106 171 297 244 423
186 323 241 415 246 415 2 0 75 -41 161 -91z m-1618 -3108 c95 -56 175 -101
176 -101 2 0 50 -28 107 -62 56 -33 128 -75 158 -91 30 -17 67 -38 82 -49 14
-10 28 -18 31 -18 3 0 41 -21 84 -46 43 -26 94 -56 113 -66 170 -96 250 -146
213 -136 -7 2 -79 -20 -353 -107 -58 -19 -179 -57 -270 -85 -91 -29 -207 -66
-258 -82 -52 -16 -95 -28 -97 -26 -3 3 -50 200 -61 258 -3 14 -16 72 -29 130
-13 58 -26 116 -29 130 -2 14 -25 120 -51 235 -26 116 -49 221 -51 234 l-5 23
33 -20 c18 -11 111 -66 207 -121z"/>
<path d="M3344 848 c-7 -11 -6 -419 1 -426 3 -3 691 -6 1530 -6 l1524 -1 3 92
c2 51 1 149 -2 220 l-5 127 -1523 1 c-838 0 -1526 -3 -1528 -7z"/>
</g>
</svg>
